<svg xmlns="http://www.w3.org/2000/svg" width="32" height="32" viewBox="0 0 32 32"><g transform="translate(2402.258 -2113.036)"><path d="m -2394.7977,2122.0381 a 0.50004997,0.50004997 0 0 0 -0.4629,0.502 l 0,2.0019 -2.5019,0 a 0.50004997,0.50004997 0 0 0 -0.4942,0.4942 l 0,2 -1.5058,0 a 0.50004997,0.50004997 0 0 0 -0.4962,0.5019 l 0,2.9981 a 0.50004997,0.50004997 0 0 0 0.4512,0.5019 0.50004997,0.50004997 0 0 0 0.045,0 l 1.5059,0 0,2 a 0.50004997,0.50004997 0 0 0 0.4941,0.502 l 2.502,0 0,2 a 0.50004997,0.50004997 0 0 0 0.4511,0.4941 0.50004997,0.50004997 0 0 0 0.051,0 l 2.9981,0 a 0.50004997,0.50004997 0 0 0 0.5019,-0.4941 l 0,-4.502 1.4922,0 0,-1.1074 1.75,0 0,1.1074 6.752,0 0,4.502 a 0.50004997,0.50004997 0 0 0 0.4512,0.4941 0.50004997,0.50004997 0 0 0 0.051,0 l 3.0039,0 a 0.50004997,0.50004997 0 0 0 0.4961,-0.4941 l 0,-2 2.5019,0 a 0.50004997,0.50004997 0 0 0 0.502,-0.502 l 0,-2 1.498,0 a 0.50004997,0.50004997 0 0 0 0.502,-0.5019 l 0,-2.9981 a 0.50004997,0.50004997 0 0 0 -0.502,-0.5019 l -1.498,0 0,-2 a 0.50004997,0.50004997 0 0 0 -0.502,-0.4942 l -2.5019,0 0,-2.0019 a 0.50004997,0.50004997 0 0 0 -0.4961,-0.502 l -3.0039,0 a 0.50004997,0.50004997 0 0 0 -0.502,0.502 l 0,4.4961 -1.5976,0 0,1.0605 -1.75,0 0,-1.0605 -6.6465,0 0,-4.4961 a 0.50004997,0.50004997 0 0 0 -0.502,-0.502 l -2.998,0 a 0.50004997,0.50004997 0 0 0 -0.039,0 z" style="line-height:normal;text-indent:0;text-align:start;text-decoration-line:none;text-decoration-style:solid;text-decoration-color:#000;text-transform:none;block-progression:tb;white-space:normal;isolation:auto;mix-blend-mode:normal;solid-color:#000;solid-opacity:1" fill="#464c63" color="#000" enable-background="accumulate" font-family="sans-serif" font-weight="400" overflow="visible"/><g transform="translate(-10.245 645.185)"><path d="M-2384.0137 1477.8516l2 0 0 12-2 0 0-12zM-2370.0137 1477.8516l2 0 0 12-2 0 0-12zM-2387.0137 1480.3516l2 0 0 7-2 0 0-7zM-2367.0137 1480.3516l2 0 0 7-2 0 0-7zM-2389.0137 1482.8516l1 0 0 2-1 0 0-2z" style="line-height:normal;text-indent:0;text-align:start;text-decoration-line:none;text-decoration-style:solid;text-decoration-color:#000;text-transform:none;block-progression:tb;white-space:normal;isolation:auto;mix-blend-mode:normal;solid-color:#000;solid-opacity:1" fill="#726263" color="#000" enable-background="accumulate" font-family="sans-serif" font-weight="400" overflow="visible"/><path d="m -2381.0137,1482.8516 10,0 0,2 -10,0 0,-2 z" style="line-height:normal;text-indent:0;text-align:start;text-decoration-line:none;text-decoration-style:solid;text-decoration-color:#000;text-transform:none;block-progression:tb;white-space:normal;isolation:auto;mix-blend-mode:normal;solid-color:#000;solid-opacity:1" fill="#e1e1e6" color="#000" enable-background="accumulate" font-family="sans-serif" font-weight="400" overflow="visible"/><path d="m -2364.0137,1482.8516 1,0 0,2 -1,0 0,-2 z" style="line-height:normal;text-indent:0;text-align:start;text-decoration-line:none;text-decoration-style:solid;text-decoration-color:#000;text-transform:none;block-progression:tb;white-space:normal;isolation:auto;mix-blend-mode:normal;solid-color:#000;solid-opacity:1" fill="#726263" color="#000" enable-background="accumulate" font-family="sans-serif" font-weight="400" overflow="visible"/><path d="M-2384.0137 1477.8516l0 12 .7188 0 0-12-.7188 0zM-2370.0137 1477.8516l0 12 .7188 0 0-12-.7188 0zM-2387.0137 1480.3516l0 7 .7188 0 0-7-.7188 0zM-2367.0137 1480.3516l0 7 .7188 0 0-7-.7188 0zM-2389.0137 1482.8516l0 2 .5704 0 0-2-.5704 0zM-2364.0137 1482.8516l0 2 .5321 0 0-2-.5321 0z" style="line-height:normal;text-indent:0;text-align:start;text-decoration-line:none;text-decoration-style:solid;text-decoration-color:#000;text-transform:none;block-progression:tb;white-space:normal;isolation:auto;mix-blend-mode:normal;solid-color:#000;solid-opacity:1" fill="#62565b" color="#000" enable-background="accumulate" font-family="sans-serif" font-weight="400" overflow="visible"/><path d="m -2381.0137,1482.8516 0,0.7285 10,0 0,-0.7285 -10,0 z" style="line-height:normal;text-indent:0;text-align:start;text-decoration-line:none;text-decoration-style:solid;text-decoration-color:#000;text-transform:none;block-progression:tb;white-space:normal;isolation:auto;mix-blend-mode:normal;solid-color:#000;solid-opacity:1" fill="#c4c9d3" color="#000" enable-background="accumulate" font-family="sans-serif" font-weight="400" overflow="visible"/></g></g></svg>